<?xml version="1.0" encoding="UTF-8"?>
<svg xmlns="http://www.w3.org/2000/svg" width="300" height="200" viewBox="0 0 300 200" fill="none">
  <rect width="300" height="200" fill="#f8fafc"/>
  
  <!-- Resource collection -->
  <!-- Books -->
  <rect x="50" y="60" width="40" height="60" rx="2" fill="#dbeafe" stroke="#3b82f6" stroke-width="2"/>
  <rect x="50" y="58" width="40" height="4" rx="1" fill="#3b82f6" stroke="#3b82f6" stroke-width="1"/>
  <line x1="55" y1="75" x2="85" y2="75" stroke="#94a3b8" stroke-width="1"/>
  <line x1="55" y1="85" x2="85" y2="85" stroke="#94a3b8" stroke-width="1"/>
  <line x1="55" y1="95" x2="75" y2="95" stroke="#94a3b8" stroke-width="1"/>
  
  <!-- Computer/Website -->
  <rect x="130" y="60" width="60" height="45" rx="3" fill="#e2e8f0" stroke="#0f172a" stroke-width="2"/>
  <rect x="135" y="65" width="50" height="30" fill="white" stroke="#0f172a" stroke-width="1"/>
  <rect x="145" y="105" width="30" height="10" rx="3" fill="#64748b" stroke="#0f172a" stroke-width="1"/>
  <line x1="140" y1="70" x2="180" y2="70" stroke="#3b82f6" stroke-width="1"/>
  <line x1="140" y1="75" x2="170" y2="75" stroke="#94a3b8" stroke-width="1"/>
  <line x1="140" y1="80" x2="175" y2="80" stroke="#94a3b8" stroke-width="1"/>
  <line x1="140" y1="85" x2="165" y2="85" stroke="#94a3b8" stroke-width="1"/>
  
  <!-- Document/Form -->
  <path d="M220,60 L250,60 L250,120 L220,120 Z" fill="white" stroke="#0f172a" stroke-width="2"/>
  <path d="M230,60 L230,70 L240,70 L240,60 Z" fill="#f8fafc" stroke="#0f172a" stroke-width="1"/>
  <line x1="225" y1="80" x2="245" y2="80" stroke="#94a3b8" stroke-width="1"/>
  <line x1="225" y1="90" x2="245" y2="90" stroke="#94a3b8" stroke-width="1"/>
  <line x1="225" y1="100" x2="245" y2="100" stroke="#94a3b8" stroke-width="1"/>
  <line x1="225" y1="110" x2="240" y2="110" stroke="#94a3b8" stroke-width="1"/>
  
  <!-- Connection lines -->
  <path d="M100,85 C110,85 120,85 130,85" stroke="#64748b" stroke-width="1.5" stroke-dasharray="4 2"/>
  <path d="M190,85 C200,85 210,85 220,85" stroke="#64748b" stroke-width="1.5" stroke-dasharray="4 2"/>
  
  <!-- Magnifying glass -->
  <circle cx="80" y="140" r="15" fill="none" stroke="#3b82f6" stroke-width="2"/>
  <line x1="90" y1="150" x2="105" y2="165" stroke="#3b82f6" stroke-width="2" stroke-linecap="round"/>
  
  <!-- Text elements -->
  <text x="150" y="170" font-family="Arial, sans-serif" font-size="14" text-anchor="middle" fill="#1e293b" font-weight="bold">Voting Resources</text>
  <text x="70" y="140" font-family="Arial, sans-serif" font-size="8" text-anchor="middle" fill="#1e293b">Find</text>
  <text x="150" y="145" font-family="Arial, sans-serif" font-size="8" text-anchor="middle" fill="#1e293b">Learn</text>
  <text x="235" y="145" font-family="Arial, sans-serif" font-size="8" text-anchor="middle" fill="#1e293b">Register</text>
</svg>